<!--
################################################################
Licensed Materials - Property of IBM
"Restricted Materials of IBM"
Copyright IBM Corp. 2025 ALL RIGHTS RESERVED
################################################################
-->


<svg width="28" height="28" viewBox="0 0 28 28" fill="none" xmlns="http://www.w3.org/2000/svg">
<path d="M2.75 4.625H0.875V23.375H2.75V4.625Z" fill="#0F62FE"/>
<path d="M6.5 2.75H4.625V25.25H6.5V2.75Z" fill="#0F62FE"/>
<path d="M23.375 19.625H12.125V21.5H23.375V19.625Z" fill="#0F62FE"/>
<path d="M23.375 14H12.125V15.875H23.375V14Z" fill="#0F62FE"/>
<path d="M26.8438 7.71875L20.2812 1.15625C20.0938 0.96875 19.9062 0.875 19.625 0.875H10.25C9.21875 0.875 8.375 1.71875 8.375 2.75V25.25C8.375 26.2812 9.21875 27.125 10.25 27.125H25.25C26.2812 27.125 27.125 26.2812 27.125 25.25V8.375C27.125 8.09375 27.0312 7.90625 26.8438 7.71875ZM19.625 3.125L24.875 8.375H19.625V3.125ZM25.25 25.25H10.25V2.75H17.75V8.375C17.75 9.40625 18.5938 10.25 19.625 10.25H25.25V25.25Z" fill="#0F62FE"/>
</svg>
