<!--
################################################################
Licensed Materials - Property of IBM
"Restricted Materials of IBM"
Copyright IBM Corp. 2025 ALL RIGHTS RESERVED
################################################################
-->


<svg width="30" height="30" viewBox="0 0 30 30" fill="none" xmlns="http://www.w3.org/2000/svg">
<path d="M17.8125 2.8125H27.1875C28.222 2.8125 29.0625 3.65297 29.0625 4.6875V10.3125C29.0625 11.347 28.222 12.1875 27.1875 12.1875H24.916L23.2928 15L21.6687 14.0625L23.834 10.3125H27.1875V4.6875H17.8125V10.3125H20.625V12.1875H17.8125C16.778 12.1875 15.9375 11.347 15.9375 10.3125V4.6875C15.9375 3.65297 16.778 2.8125 17.8125 2.8125Z" fill="#0F62FE"/>
<path d="M14.0625 28.125H12.1875V23.4375C12.1858 21.8849 10.9276 20.6267 9.375 20.625H5.625C4.07241 20.6267 2.81419 21.8849 2.8125 23.4375V28.125H0.9375V23.4375C0.940594 20.8499 3.03741 18.7531 5.625 18.75H9.375C11.9626 18.7531 14.0594 20.8499 14.0625 23.4375V28.125Z" fill="#0F62FE"/>
<path d="M7.5 9.375C9.05334 9.375 10.3125 10.6342 10.3125 12.1875C10.3125 13.7408 9.05334 15 7.5 15C5.94666 15 4.6875 13.7408 4.6875 12.1875C4.68928 10.6349 5.94741 9.37678 7.5 9.375ZM7.5 7.5C4.91119 7.5 2.8125 9.59869 2.8125 12.1875C2.8125 14.7763 4.91119 16.875 7.5 16.875C10.0888 16.875 12.1875 14.7763 12.1875 12.1875C12.1875 9.59869 10.0888 7.5 7.5 7.5Z" fill="#0F62FE"/>
</svg>
