<?xml version="1.0" encoding="UTF-8"?>
<svg id="Layer_1" data-name="Layer 1" xmlns="http://www.w3.org/2000/svg" viewBox="0 0 1024 1024">
  <defs>
    <style>
      .cls-1 {
        stroke-width: 25px;
      }

      .cls-1, .cls-2, .cls-3, .cls-4 {
        stroke: #fff;
        stroke-miterlimit: 10;
      }

      .cls-1, .cls-2, .cls-4 {
        fill: none;
      }

      .cls-2, .cls-4 {
        stroke-width: 40px;
      }

      .cls-3 {
        fill: #2d2d2d;
      }

      .cls-4 {
        stroke-linecap: round;
      }
    </style>
  </defs>
  <g>
    <g>
      <polyline class="cls-4" points="635.62 553.65 594.33 471.07 594.33 429.77 842.08 429.77 842.08 305.9 800.79 264.6 759.5 264.6 759.5 347.19 718.2 347.19 676.91 305.9 635.62 305.9 635.62 347.19 553.03 347.19 553.03 223.31 676.91 223.31 676.91 140.72 594.33 140.72 594.33 58.14"/>
      <polyline class="cls-2" points="387.86 58.14 387.86 347.19 263.99 429.77 263.99 512.36 470.45 512.36 470.45 883.99 429.16 883.99 222.69 677.53 222.69 594.94 181.4 594.94 46.77 449.06"/>
    </g>
    <path class="cls-4" d="M984.37,558.72c1.48-15.25,2.23-30.72,2.23-46.36,0-262.26-212.61-474.86-474.86-474.86S36.88,250.1,36.88,512.36s212.61,474.86,474.86,474.86"/>
  </g>
  <g>
    <line class="cls-1" x1="739.12" y1="904.38" x2="739.12" y2="986.96"/>
    <line class="cls-1" x1="821.71" y1="904.38" x2="821.71" y2="986.96"/>
    <g>
      <rect class="cls-1" x="573.95" y="635.98" width="412.93" height="268.4" rx="2" ry="2"/>
      <line class="cls-1" x1="656.54" y1="986.96" x2="904.29" y2="986.96"/>
    </g>
  </g>
  <g id="Layers">
    <g id="Layers-2" data-name="Layers">
      <polygon class="cls-3" points="845.97 802.57 865.94 814.67 780.41 873 694.88 814.67 714.85 802.57 710.19 799.4 685.41 814.41 780.41 879.2 875.41 814.41 850.63 799.4 845.97 802.57"/>
      <polygon class="cls-3" points="845.97 770.66 865.94 782.76 780.41 841.09 694.88 782.76 714.86 770.66 710.2 767.49 685.41 782.49 780.41 847.3 875.41 782.49 850.63 767.49 845.97 770.66"/>
      <g>
        <path class="cls-3" d="M769.89,710.22c-2.85,3.08-2.48,8.09.82,11.14,3.31,3.05,8.32,3.03,11.18-.06,2.85-3.09,2.49-8.09-.82-11.15-3.31-3.05-8.32-3.03-11.18.06Z"/>
        <path class="cls-3" d="M755.41,740.68c-2.21,2.4-1.93,6.27.63,8.63,2.56,2.37,6.45,2.35,8.67-.04,2.21-2.38,1.92-6.26-.64-8.64-2.56-2.36-6.45-2.35-8.66.05Z"/>
        <path class="cls-3" d="M780.41,661.15l-95,57.53,95,64.8,95-64.8-95-57.53ZM765.81,674.99c1.85-2,5.09-2.02,7.24-.03,2.14,1.98,2.38,5.22.53,7.22-1.85,2.01-5.09,2.03-7.24.04-2.15-1.99-2.38-5.22-.53-7.23ZM775.14,698.19c.14,1-.55,1.88-1.55,1.95-.55.04-1.07-.16-1.46-.52-.32-.29-.55-.7-.62-1.15l-1.43-10.03c-.14-1,.55-1.87,1.55-1.95,1-.08,1.93.68,2.07,1.69l1.43,10.02ZM752.92,712.8l6.81.45c1.01.06,1.83.93,1.83,1.93,0,1-.81,1.76-1.83,1.69l-6.81-.44c-.46-.03-.88-.22-1.2-.52-.39-.36-.63-.87-.63-1.41,0-1,.82-1.77,1.83-1.7ZM747.73,717.92c-1.84,2-5.09,2.02-7.23.04-2.15-1.98-2.38-5.22-.53-7.22,1.85-2,5.09-2.02,7.24-.03,2.14,1.98,2.38,5.2.53,7.22ZM812.62,723.71c-1.44-1.33-2.39-2.96-2.92-4.67l-22.6.12c-.41,1.72-1.19,3.34-2.45,4.71-.96,1.04-2.1,1.81-3.33,2.37l8.09,25.64c1.09.13,2.17.59,3.06,1.42,2.14,1.98,2.38,5.22.53,7.22-1.85,2-5.09,2.02-7.23.03-2.14-1.97-2.38-5.2-.53-7.22.21-.22.44-.41.68-.59l-8.07-25.57c-2.1.21-4.27-.14-6.29-1.09l-5.64,11.56c.17.14.37.25.54.4,4.09,3.79,4.54,9.97,1.01,13.78-3.53,3.82-9.73,3.86-13.82.08-4.09-3.78-4.54-9.96-1.01-13.78,2.54-2.75,6.47-3.51,10-2.32l5.76-11.8s-.06-.03-.09-.06c-4.83-4.46-5.37-11.77-1.19-16.28,4.17-4.52,11.5-4.56,16.33-.1,2.37,2.19,3.69,5.06,3.95,7.95l21.89-.12c.15-2,.9-3.93,2.32-5.47,3.53-3.82,9.73-3.86,13.82-.08,4.08,3.78,4.54,9.96,1.01,13.79-3.53,3.82-9.73,3.85-13.82.07Z"/>
        <path class="cls-3" d="M814.38,712.49c-2.21,2.39-1.93,6.26.63,8.63,2.56,2.36,6.45,2.35,8.66-.04,2.22-2.4,1.93-6.28-.63-8.65-2.56-2.37-6.45-2.35-8.66.05Z"/>
      </g>
      <polygon class="cls-3" points="845.97 738.75 865.94 750.84 780.41 809.17 694.88 750.84 714.85 738.75 710.19 735.58 685.41 750.58 780.41 815.38 875.41 750.58 850.63 735.58 845.97 738.75"/>
    </g>
  </g>
</svg>